<?xml version="1.0"?>
<svg xmlns="http://www.w3.org/2000/svg" xmlns:xlink="http://www.w3.org/1999/xlink" version="1.1" id="Layer_1" x="0px" y="0px" viewBox="0 0 469.34 469.34" style="enable-background:new 0 0 469.34 469.34;" xml:space="preserve" width="512px" height="512px" class=""><g><g>
	<g>
		<path d="M469.333,106.785c0.125-12.885-1.313-30.948-15.25-39.094c-10.042-5.833-23.125-4.667-40.729,3.74    C392,28.264,347.333,0.003,298.667,0.003c-70.583,0-128,57.417-128,128c0,23.354,6.104,44.958,18.208,64.469    c-0.104,0-0.208,0-0.313,0c-48.5,0-101.167-9.531-125.688-58.573c-1.542-3.063-4.458-5.208-7.833-5.76    c-3.354-0.573-6.833,0.563-9.25,2.99C14.125,162.795,0,204.597,0,266.67c0,52.573,43.104,202.667,234.667,202.667    c211.792,0,234.667-111.896,234.667-160c0-53.615-16.375-99.698-47.521-134.073C453.188,147.608,469.146,124.597,469.333,106.785z     M320,74.67c11.771,0,21.333,9.573,21.333,21.333c0,11.76-9.563,21.333-21.333,21.333c-11.771,0-21.333-9.573-21.333-21.333    C298.667,84.243,308.229,74.67,320,74.67z M351.5,381.326c-17.542,15.521-40.104,24.063-63.5,24.063    c-74.792,0-133.25-39.521-173.729-117.479c-2.729-5.229-0.688-11.667,4.542-14.385c5.167-2.698,11.646-0.688,14.375,4.552    C169.708,348.399,221.792,384.056,288,384.056c18.188,0,35.729-6.646,49.375-18.708c4.375-3.896,11.104-3.5,15.063,0.927    C356.333,370.681,355.917,377.42,351.5,381.326z" data-original="#000000" class="active-path" data-old_color="#FFF5F5" fill="#FFFFFF"/>
	</g>
</g></g> </svg>
