<?xml version="1.0" encoding="iso-8859-1"?>
<!-- Generator: Adobe Illustrator 19.0.0, SVG Export Plug-In . SVG Version: 6.00 Build 0)  -->
<svg version="1.1" id="Layer_1" xmlns="http://www.w3.org/2000/svg" xmlns:xlink="http://www.w3.org/1999/xlink" x="0px" y="0px"
	 viewBox="0 0 504.27 504.27" style="enable-background:new 0 0 504.27 504.27;" xml:space="preserve">
<path style="fill:#EA9D15;" d="M495.2,330.935c0,85.6-127.2,155.2-264,155.2S0,416.535,0,330.935s111.2-155.2,248-155.2
	C384,175.735,495.2,245.335,495.2,330.935z"/>
<path style="fill:#E08E0B;" d="M495.2,330.935c0-85.6-111.2-155.2-248-155.2c-36.8,0-72,4.8-103.2,14.4l-70.4,70.4l220,220
	C404,463.735,495.2,402.935,495.2,330.935z"/>
<path style="fill:#EDB914;" d="M370.4,158.935c0,77.6-96,137.6-190.4,137.6c-93.6,0-150.4-60-150.4-137.6s76-140.8,170.4-140.8
	C293.6,18.135,370.4,81.335,370.4,158.935z"/>
<path style="fill:#E8AA10;" d="M200,18.135c93.6,0,170.4,63.2,170.4,140.8s-96,137.6-190.4,137.6"/>
<g>
	<path style="fill:#00233F;" d="M103.2,80.535c-10.4,0.8-18.4,5.6-18.4,10.4l37.6-2.4C122.4,82.935,113.6,79.735,103.2,80.535z"/>
	<path style="fill:#00233F;" d="M228,80.535c10.4,0.8,18.4,5.6,18.4,10.4l-37.6-2.4C208.8,82.935,217.6,79.735,228,80.535z"/>
</g>
<path style="fill:#EFD53A;" d="M96.8,164.535c-24.8,0-45.6,5.6-45.6,12.8s20,4,45.6,4c24.8,0,45.6,3.2,45.6-4
	C141.6,170.135,121.6,164.535,96.8,164.535z"/>
<path style="fill:#EDB914;" d="M235.2,164.535c-24.8,0-45.6,5.6-45.6,12.8s20,4,45.6,4c24.8,0,45.6,3.2,45.6-4
	C280.8,170.135,260,164.535,235.2,164.535z"/>
<path style="fill:#EFD53A;" d="M124.8,154.935c0,10.4-8,18.4-18.4,18.4s-18.4-8-18.4-18.4s8-18.4,18.4-18.4
	S124.8,144.535,124.8,154.935z"/>
<path style="fill:#EDB914;" d="M245.6,154.935c0,10.4-8,18.4-18.4,18.4s-18.4-8-18.4-18.4s8-18.4,18.4-18.4
	S245.6,144.535,245.6,154.935z"/>
<path style="fill:#1E4784;" d="M124.8,149.335c0,10.4-8,18.4-18.4,18.4s-18.4-8-18.4-18.4s8-18.4,18.4-18.4
	C116.8,130.935,124.8,139.735,124.8,149.335z"/>
<path style="fill:#00233F;" d="M106.4,130.935c10.4,0,18.4,8,18.4,18.4s-8,18.4-18.4,18.4"/>
<path style="fill:#1E4784;" d="M245.6,149.335c0,10.4-8,18.4-18.4,18.4s-18.4-8-18.4-18.4s8-18.4,18.4-18.4
	C237.6,130.935,245.6,139.735,245.6,149.335z"/>
<path style="fill:#00233F;" d="M227.2,130.935c10.4,0,18.4,8,18.4,18.4s-8,18.4-18.4,18.4"/>
<path style="fill:#E25B00;" d="M84.8,202.935c0-10.4,31.2-20,69.6-20.8s69.6,7.2,70.4,17.6c0,10.4-14.4,32.8-52.8,33.6
	C132.8,234.935,85.6,214.135,84.8,202.935z"/>
<path style="fill:#FF6700;" d="M224.8,197.335c0,10.4-30.4,12-69.6,12.8c-38.4,0.8-69.6,0.8-70.4-9.6c0-10.4,30.4-32.8,68.8-33.6
	C192.8,166.135,224.8,186.935,224.8,197.335z"/>
<ellipse transform="matrix(0.2508 -0.968 0.968 0.2508 28.0599 690.2494)" style="fill:#E08E0B;" cx="459.957" cy="326.997" rx="73.604" ry="41.602"/>
<g>
</g>
<g>
</g>
<g>
</g>
<g>
</g>
<g>
</g>
<g>
</g>
<g>
</g>
<g>
</g>
<g>
</g>
<g>
</g>
<g>
</g>
<g>
</g>
<g>
</g>
<g>
</g>
<g>
</g>
</svg>
