<svg height="511pt" viewBox="-12 0 511 511.99956" width="511pt" xmlns="http://www.w3.org/2000/svg"><path d="m418.222656 177.03125s80.957032 63.878906 69.050782 172.003906c-11.902344 108.128906-89.847657 165.273438-194.929688 162.894532-105.082031-2.382813-221.003906-82.589844-260.246094-169.792969-54.683594-121.523438-7.144531-282.421875-7.144531-282.421875s117.28125-33.457032 260.824219 40.515625c126.34375 65.113281 132.445312 76.800781 132.445312 76.800781zm0 0" fill="#edc900"/><path d="m451.558594 159.214844c0 87.933594-71.28125 159.21875-159.214844 159.21875s-159.214844-71.285156-159.214844-159.21875c0-87.929688 71.28125-159.214844 159.214844-159.214844s159.214844 71.285156 159.214844 159.214844zm0 0" fill="#ffd800"/><path d="m433.175781 235.632812s10.828125 22.632813 23.632813 33.746094c12.804687 11.109375 20.652344 29.898438-5.25 54.503906-15.867188 15.074219-42.753906 25.398438-58.628906 19.84375-15.875-5.554687-38.894532-51.328124-59.53125-52.386718-13.5-.691406-12.699219-8.730469-5.554688-17.460938 7.144531-8.730468 22.617188-10.726562 31.347656-30.570312 8.730469-19.839844 28.609375-27.433594 40.679688-26.90625 12.074218.53125 24.050781-4.441406 27.144531-2.777344 8.074219 4.339844 6.160156 22.007812 6.160156 22.007812zm0 0" fill="#cc8200"/><path d="m306.410156 248.738281c0 11.398438-9.238281 20.640625-20.636718 20.640625-11.394532 0-20.636719-9.242187-20.636719-20.640625 0-11.394531 9.242187-20.636719 20.636719-20.636719 11.398437 0 20.636718 9.242188 20.636718 20.636719zm0 0" fill="#2a353c"/><path d="m445.3125 176.515625c0-11.398437-3.796875-20.636719-8.484375-20.636719s-8.488281 9.238282-8.488281 20.636719 3.800781 20.636719 8.488281 20.636719 8.484375-9.238282 8.484375-20.636719zm0 0" fill="#2a353c"/><path d="m202.222656 334.628906-194.429687-126.988281s-27.902344 92.59375 25.441406 152.148437c53.339844 59.554688 96.335937 81.253907 137.488281 86.28125 11.144532 1.359376 21.824219-1.660156 31.320313-7.535156 38.113281-23.59375 37.710937-79.394531.179687-103.90625zm0 0" fill="#ffd800"/><path d="m329.707031 41.054688c-8.796875 14.203124 1.59375 36.570312 23.207031 49.957031 21.613282 13.390625 46.265626 12.730469 55.0625-1.472657 8.800782-14.203124-1.589843-36.570312-23.203124-49.957031-21.613282-13.390625-46.269532-12.730469-55.066407 1.472657zm0 0" fill="#faec8b"/></svg>