<!DOCTYPE svg PUBLIC "-//W3C//DTD SVG 20010904//EN" "http://www.w3.org/TR/2001/REC-SVG-20010904/DTD/svg10.dtd">
<svg version="1.0" xmlns="http://www.w3.org/2000/svg" width="1207px" height="228px" viewBox="0 0 12070 2280" preserveAspectRatio="xMidYMid meet">
<g id="layer101" fill="#b4907c" stroke="none">
 <path d="M0 1140 l0 -1140 5219 0 5219 0 23 36 c12 20 29 43 38 52 10 10 46 62 81 117 35 55 68 105 75 110 6 6 36 48 65 95 29 47 65 96 80 110 14 14 55 70 90 125 35 55 69 105 75 110 7 6 41 55 75 110 34 55 68 105 74 110 7 6 37 48 67 95 29 47 66 97 80 111 15 14 55 71 89 125 34 54 68 104 74 109 7 6 41 55 76 110 35 55 71 108 81 117 9 9 33 44 54 77 20 34 40 61 44 61 4 0 17 18 29 39 12 22 26 41 31 43 5 2 41 55 82 118 40 63 78 120 84 125 10 8 66 93 109 163 6 9 -1198 12 -6003 12 l-6011 0 0 -1140z"/>
 </g>

</svg>